PathFileType	4	(X/Y/Z)	C:\Users\°ÂÌØÂü\Desktop\20210112\bx_n_5_902-Unnamed.trc
DataRate	CameraRate	NumFrames	NumMarkers	Units	OrigDataRate	OrigDataStartFrame	OrigNumFrames
50.00	50.00	       5	0	mm	50.00	205	       545
Frame#	Time	
		

205	4.080	-714.02704	157.37288	219.29860	-605.28564	104.33075	1353.99329	-724.75800	284.99835	877.48645	-619.05237	-6.49793	808.94287				-729.18207	272.34644	746.96954	-754.89703	254.20012	643.83521	-711.23505	150.24956	576.89539	-754.25787	250.93155	576.69904	-680.99957	16.34587	523.10712	-696.29211	212.27594	537.71307	-790.77216	259.59537	501.25974	-793.32288	38.03060	173.39459	-674.47675	53.23287	159.69185	-648.62329	-68.28900	161.53207	-686.76825	283.52054	1539.65527	-770.28577	229.61781	203.99391	-606.13885	-73.73515	157.79884	-882.47534	296.04340	144.65540	-681.82733	-74.78821	1535.96033	-599.81110	27.02397	168.02663	-548.14197	-25.59659	162.71451	-518.21552	-72.75199	143.30107	-675.73889	174.65697	161.63780	-593.19751	220.36108	175.38123	-624.34521	307.90726	157.33313	-528.10681	303.93549	146.34975	-690.47461	98.97903	1846.39392	-622.20398	232.73230	796.99426	-719.66882	69.50161	217.13402	-795.96552	180.54579	183.01407	-556.72736	254.97903	164.65971	-660.81439	299.38165	155.97977	-835.23492	99.56760	1060.73242				-773.05359	-42.25690	488.17197	-759.75476	-20.18871	207.41331	-875.85034	-78.68372	141.27127	-700.06842	-67.38385	877.18140	-716.91132	-56.22026	761.56726	-729.87964	-32.23385	619.50256	-733.84296	-31.12400	570.98553	-709.69781	75.67304	573.97815	
206	4.100	-713.95831	157.27657	219.14595	-606.33990	105.04150	1354.85242	-722.36188	285.57455	877.66205	-617.26471	-6.06937	808.82568				-727.22382	273.13083	746.91089	-752.72101	254.28296	643.65558	-710.36658	150.35162	576.96985	-753.03119	251.33868	577.07507	-680.45673	16.47961	522.81372	-695.31805	212.57126	537.73218	-789.14075	259.69778	501.25293	-793.26892	38.09019	173.48218	-674.33301	53.20012	159.95094	-648.68549	-68.13780	161.54196	-689.87598	284.15042	1540.40063	-770.19598	229.50966	204.04091	-606.08783	-73.69226	158.01099	-882.66138	296.22351	144.66956	-684.93341	-74.04345	1536.67883	-600.24042	26.89829	168.00711	-548.15326	-25.64138	162.73177	-518.12860	-72.66010	143.23611	-675.90558	174.60806	161.65475	-593.17236	220.29361	175.28725	-624.22748	307.78568	157.16402	-528.23901	303.89801	146.35695	-695.15582	99.56160	1846.96680	-620.65839	233.07524	797.31097	-719.43860	69.81835	217.23390	-795.90179	180.53561	183.06012	-556.73993	255.19453	164.60704	-660.65137	299.37286	155.89403	-833.37256	99.95702	1060.30518				-772.32239	-42.47901	488.45847	-759.62360	-20.37573	207.52631	-875.85522	-78.73365	141.22168	-698.15662	-66.98368	876.92462	-715.06036	-56.27457	761.55597	-729.05170	-32.29426	619.95502	-733.29083	-30.75338	570.60828	-708.96497	75.63132	574.28534	
207	4.120	-713.93420	157.14618	219.07661	-607.11804	105.66301	1355.95654	-720.21387	285.61011	877.59998	-615.75464	-5.40228	808.96765				-725.80365	272.92719	746.87250	-751.94781	254.47334	643.65149	-709.44678	150.30481	576.88116	-751.71924	251.19174	577.08923	-679.72467	16.41822	522.87067	-694.42755	212.51160	537.36755	-788.72186	259.67926	501.13855	-793.26892	38.09019	173.48218	-674.39093	53.34649	159.74802	-648.62329	-68.28900	161.53207	-693.01624	284.96011	1540.61377	-770.08514	229.33972	203.90868	-606.23181	-73.56502	157.91402	-882.67102	296.21390	144.65089	-687.56854	-73.56335	1537.37207	-599.85034	26.97464	168.31538	-548.16125	-25.48881	162.69000	-518.15552	-72.63754	143.27895	-675.67554	174.59795	161.43613	-593.12848	220.29662	175.20914	-624.40363	307.79321	157.27412	-528.07623	304.05713	146.53560	-699.50317	100.25041	1847.10400	-618.81030	233.03036	797.11914	-719.34009	69.78107	217.18230	-797.18982	179.86755	183.74899	-556.72736	254.97903	164.65971	-660.90491	299.21259	156.10532	-831.91443	100.18755	1060.09155				-771.40765	-42.29345	488.40512	-759.50500	-20.22323	207.46413	-875.94965	-78.65163	141.20186	-696.14038	-67.03961	876.74298	-713.06299	-55.73140	761.33496	-728.03693	-32.08911	619.75000	-732.43317	-30.60470	570.65460	-708.37469	75.64732	574.10651	
208	4.140	-713.87683	157.31004	218.84634	-607.65607	106.27255	1356.77441	-718.35223	286.02884	877.41705	-614.19208	-4.93325	808.95605				-723.94617	273.10736	746.68042	-750.59692	254.94659	643.94098	-708.36908	150.32925	577.01160	-750.82056	251.04056	576.57422	-678.97076	16.58353	522.90668	-693.59583	212.46689	537.46436	-787.68311	259.94385	501.38156	-793.26892	38.09019	173.48218	-674.39093	53.34649	159.74802	-648.63440	-68.08114	161.71489	-695.63031	285.14081	1540.86902	-770.01129	229.35478	204.08392	-606.14032	-73.75559	157.94286	-882.62701	296.24408	144.67265	-689.93463	-73.17759	1537.69702	-599.96838	26.86893	168.08942	-548.08716	-25.51050	162.71959	-518.20245	-72.80837	143.18149	-675.68073	174.54671	161.32011	-593.05890	220.22493	175.17862	-624.25323	307.85034	157.36028	-528.07056	303.90341	146.32628	-703.67572	100.66791	1847.45581	-617.45288	232.93164	796.92181	-719.38892	69.84349	217.08376	-796.81555	180.15256	183.23604	-556.64233	255.12041	164.69626	-661.20117	299.50107	155.97162	-829.99890	100.53333	1059.60510				-771.15796	-42.26732	488.58694	-759.50696	-20.17316	207.52243	-875.67303	-78.60674	141.16986	-694.44312	-66.68587	877.01025	-711.71527	-55.69647	761.54797	-727.43481	-31.68400	619.20203	-731.19086	-30.38657	570.82312	-707.64142	75.80771	574.02051	
209	4.160	-713.69012	157.12997	219.04207	-608.19012	106.97314	1357.09717	-717.08258	286.09134	877.16705	-612.76801	-4.94163	808.42413				-722.89899	273.33884	746.73981	-749.92981	254.69200	643.95984	-707.55432	150.42680	576.63196	-750.13177	251.42755	577.04077	-678.21527	16.59077	522.86139	-692.74225	212.70407	537.45050	-787.04419	259.71362	501.10168	-793.24762	38.29824	173.60939	-674.26642	53.42730	159.87424	-648.76917	-68.07558	161.69231	-698.78174	284.87207	1541.07605	-769.92499	229.14304	204.10982	-606.21277	-73.62868	158.06949	-882.55072	296.24280	144.74985	-692.36255	-72.15636	1538.17712	-599.62482	27.03069	167.90791	-548.04279	-25.61336	162.77190	-518.22174	-72.83655	143.29633	-675.69336	174.47246	161.26175	-592.98737	220.10858	175.00620	-624.18011	308.00858	157.31438	-528.22351	304.04681	146.46884	-707.31097	101.09222	1847.49854	-616.27875	233.08607	796.80280	-719.59515	69.95945	216.99725	-796.67078	180.14311	183.12944	-556.65302	255.09624	164.64868	-660.98175	299.47784	155.97806	-828.53607	100.51456	1059.32434				-770.49188	-41.88134	488.47253	-759.53827	-20.10400	207.31570	-875.85522	-78.73365	141.22168	-692.77380	-66.82040	877.25183	-710.72931	-55.79037	761.66052	-726.56934	-31.27653	619.07440	-730.61353	-30.53690	571.21753	-706.91748	76.10133	574.48523	
